<svg xmlns="http://www.w3.org/2000/svg" viewBox="0 0 512 512" width="100%" height="100%">
  <defs>
    <!-- Card Base Gradient -->
    <linearGradient id="cardGrad" x1="0%" y1="0%" x2="100%" y2="100%">
      <stop offset="0%" stop-color="#FFFFFF" />
      <stop offset="100%" stop-color="#F1F5F9" />
    </linearGradient>

    <!-- Green Active Gradient -->
    <linearGradient id="greenActive" x1="0%" y1="0%" x2="100%" y2="100%">
      <stop offset="0%" stop-color="#10B981" />
      <stop offset="100%" stop-color="#047857" />
    </linearGradient>

    <!-- Red Alert Gradient -->
    <linearGradient id="redActive" x1="0%" y1="0%" x2="100%" y2="100%">
      <stop offset="0%" stop-color="#EF4444" />
      <stop offset="100%" stop-color="#B91C1C" />
    </linearGradient>

    <!-- Grey Badge Gradient -->
    <linearGradient id="greyBadge" x1="0%" y1="0%" x2="100%" y2="100%">
      <stop offset="0%" stop-color="#94A3B8" />
      <stop offset="100%" stop-color="#475569" />
    </linearGradient>

    <!-- Dot Glow -->
    <filter id="glowDot" x="-30%" y="-30%" width="160%" height="160%">
      <feGaussianBlur stdDeviation="3" result="blur" />
      <feComposite in="SourceGraphic" in2="blur" operator="over" />
    </filter>
  </defs>

  <!-- App Base Frame -->
  <rect x="16" y="16" width="480" height="480" rx="96" fill="url(#cardGrad)" stroke="#E2E8F0" stroke-width="6" />

  <!-- Inner Border Highlight -->
  <rect x="22" y="22" width="468" height="468" rx="90" fill="none" stroke="#FFFFFF" stroke-width="8" opacity="0.9" />

  <!-- 6x6 Matrix Container -->
  <g transform="translate(86, 86)">
    <!-- Row 1 -->
    <circle cx="0" cy="0" r="20" fill="#CBD5E1" />
    <circle cx="68" cy="0" r="20" fill="#CBD5E1" />
    <circle cx="136" cy="0" r="20" fill="#CBD5E1" />
    <circle cx="204" cy="0" r="20" fill="#CBD5E1" />
    <circle cx="272" cy="0" r="20" fill="#CBD5E1" />
    <circle cx="340" cy="0" r="20" fill="#CBD5E1" />

    <!-- Row 2 -->
    <circle cx="0" cy="68" r="20" fill="#CBD5E1" />
    <circle cx="68" cy="68" r="22" fill="url(#greenActive)" filter="url(#glowDot)" />
    <circle cx="136" cy="68" r="22" fill="url(#greenActive)" filter="url(#glowDot)" />
    <circle cx="204" cy="68" r="22" fill="url(#greenActive)" filter="url(#glowDot)" />
    <circle cx="272" cy="68" r="20" fill="#CBD5E1" />
    <circle cx="340" cy="68" r="20" fill="#CBD5E1" />

    <!-- Row 3 -->
    <circle cx="0" cy="136" r="20" fill="#CBD5E1" />
    <circle cx="68" cy="136" r="22" fill="url(#greenActive)" filter="url(#glowDot)" />
    <!-- Center Red Alert Dot -->
    <circle cx="136" cy="136" r="25" fill="url(#redActive)" filter="url(#glowDot)" />
    <circle cx="204" cy="136" r="22" fill="url(#greenActive)" filter="url(#glowDot)" />
    <circle cx="272" cy="136" r="20" fill="#CBD5E1" />
    <circle cx="340" cy="136" r="20" fill="#CBD5E1" />

    <!-- Row 4 -->
    <circle cx="0" cy="204" r="20" fill="#CBD5E1" />
    <circle cx="68" cy="204" r="22" fill="url(#greenActive)" filter="url(#glowDot)" />
    <circle cx="136" cy="204" r="22" fill="url(#greenActive)" filter="url(#glowDot)" />
    <circle cx="204" cy="204" r="22" fill="url(#greenActive)" filter="url(#glowDot)" />
    <circle cx="272" cy="204" r="20" fill="#CBD5E1" />
    <circle cx="340" cy="204" r="20" fill="#CBD5E1" />

    <!-- Row 5 -->
    <circle cx="0" cy="272" r="20" fill="#CBD5E1" />
    <circle cx="68" cy="272" r="20" fill="#CBD5E1" />
    <circle cx="136" cy="272" r="20" fill="#CBD5E1" />
    <circle cx="204" cy="272" r="20" fill="#CBD5E1" />
    <circle cx="272" cy="272" r="20" fill="#CBD5E1" />
    <circle cx="340" cy="272" r="20" fill="#CBD5E1" />

    <!-- Row 6 -->
    <circle cx="0" cy="340" r="20" fill="#CBD5E1" />
    <circle cx="68" cy="340" r="20" fill="#CBD5E1" />
    <circle cx="136" cy="340" r="20" fill="#CBD5E1" />
    <circle cx="204" cy="340" r="20" fill="#CBD5E1" />
    <circle cx="272" cy="340" r="20" fill="#CBD5E1" />
    <circle cx="340" cy="340" r="20" fill="#CBD5E1" />
  </g>

  <!-- Large Floating Grey Badge (Bottom Right) -->
  <g>
    <circle cx="396" cy="396" r="80" fill="url(#greyBadge)" stroke="#FFFFFF" stroke-width="12" />
    <path d="M 356 396 L 382 422 L 436 368" fill="none" stroke="#FFFFFF" stroke-width="18" stroke-linecap="round" stroke-linejoin="round" />
  </g>
</svg>
